<?xml version="1.0" encoding="UTF-8"?>
<svg id="Layer_1" data-name="Layer 1" xmlns="http://www.w3.org/2000/svg" viewBox="0 0 1133.86 1133.86">
  <defs>
    <style>
      .cls-1 {
        fill: #0b475e;
      }

      .cls-2 {
        fill: #ecf5fa;
      }

      .cls-3 {
        fill: #fff;
      }

      .cls-4 {
        fill: #0f4c5e;
      }

      .cls-5 {
        fill: #1183bc;
      }

      .cls-6 {
        fill: #abb1b7;
      }
    </style>
  </defs>
  <g>
    <path class="cls-6" d="M787.53,891.96c-1.26,0-2.55-.17-3.9-.54-.44-.12-.87-.26-1.29-.42-.16-.06-.32-.12-.48-.18-.21-.08-.41-.17-.61-.26-.27-.13-.54-.26-.8-.4-.31-.15-.61-.32-.9-.51-.35-.21-.69-.43-1.02-.67-.26-.18-.51-.37-.76-.57,0,0-.02-.01-.03-.02-.15-.12-.29-.23-.43-.36-.27-.22-.53-.45-.78-.69-.26-.24-.51-.49-.75-.75-.17-.17-.33-.35-.49-.53-.17-.19-.34-.38-.5-.58-.23-.27-.45-.55-.67-.83s-.43-.56-.63-.85c-.14-.2-.29-.41-.41-.61-.02-.02-.03-.03-.03-.04-.24-.33-.45-.67-.66-1.02-.78-1.26-1.48-2.59-2.11-3.94-.14-.28-.27-.56-.39-.84-.4-.91-.78-1.82-1.13-2.72-.42-1.1-.81-2.19-1.17-3.26-.24-.68-.46-1.33-.65-1.96-4.14-13.06-5.74-27.11-6.76-40.74-1.26-16.98-1.14-34.15.46-51.13,1.19-12.48,2.74-25.48,6.93-37.38.22-.55.41-1.14.63-1.69.18-.48.37-.95.56-1.43.19-.48.39-.96.6-1.44.13-.3.26-.61.4-.92s.28-.61.43-.92c.25-.54.51-1.07.8-1.6.09-.17.17-.35.27-.52.08-.17.18-.34.28-.51.16-.3.33-.6.51-.89.02-.05.05-.1.09-.15.15-.27.31-.52.48-.78.02-.04.05-.09.08-.13.2-.33.42-.65.64-.96.17-.26.36-.51.54-.76.01-.01.02-.02.03-.03.19-.26.39-.52.59-.77.23-.29.48-.58.72-.86.05-.05.1-.11.14-.16.27-.3.55-.59.83-.86.51-.52,1.05-1.01,1.62-1.46.2-.16.41-.32.62-.48.14-.1.28-.2.43-.3.23-.17.48-.33.73-.48.19-.12.37-.23.56-.33.21-.12.43-.24.65-.35.13-.07.27-.14.41-.2.24-.11.48-.22.72-.32.05-.03.1-.05.15-.07,1.18-.71,2.59-1.12,4.21-1.19h-244.39c-1.45,0-2.9.01-4.34.01l.02,8.39c.1.59.15,1.22.15,1.88v162.08h249.8ZM557.79,804.06c.61-6.36,2.81-11.77,6.88-16.69,6.96-8.43,19.83-11.86,30.07-8.02,10.95,4.1,18.38,13.88,18.87,25.59.02.24.02.48.03.72v.25c-.01.24-.02.49-.03.73-.57,12.38-9.49,24.18-22.05,26.45-6.4,1.15-12.37.43-18.28-2.29-4.82-2.21-8.97-6.25-11.68-10.78-2.77-4.64-4.33-10.56-3.81-15.96Z"/>
    <path class="cls-3" d="M788.25,868.15s-.02-.05-.04-.08c0,.04.02.1.05.15,0-.02-.01-.05-.01-.07Z"/>
    <path class="cls-6" d="M432.62,600.48c.02.24.02.49.03.73v.26c-.01.24-.01.49-.03.73-.56,12.38-9.48,24.18-22.05,26.45-6.4,1.15-12.37.42-18.28-2.29-4.82-2.21-8.96-6.25-11.67-10.78-2.77-4.64-4.34-10.56-3.82-15.97.62-6.35,2.81-11.76,6.88-16.69,6.97-8.42,19.84-11.85,30.08-8.02,10.94,4.1,18.37,13.88,18.86,25.58Z"/>
    <path class="cls-6" d="M613.64,805.66v.25c-.01.24-.02.49-.03.73-.57,12.38-9.49,24.18-22.05,26.45-6.4,1.15-12.37.43-18.28-2.29-4.82-2.21-8.97-6.25-11.68-10.78-2.77-4.64-4.33-10.56-3.81-15.96.61-6.36,2.81-11.77,6.88-16.69,6.96-8.43,19.83-11.86,30.07-8.02,10.95,4.1,18.38,13.88,18.87,25.59.02.24.02.48.03.72Z"/>
    <path class="cls-6" d="M789.32,719.62c-.17,0-.36-.02-.56-.02h-1.23c2.03.12,3.87.56,5.54,1.23l.03.03c.87.34,1.67.75,2.44,1.23-1.72-1.47-3.87-2.39-6.22-2.47ZM787.53,891.96h1.4c2.52,0,4.87-.97,6.69-2.55-2.4,1.58-5.11,2.55-8.09,2.55ZM788.25,868.15s-.02-.05-.04-.08c0,.04.02.1.05.15,0-.02-.01-.05-.01-.07ZM786.29,719.6c-1.62.07-3.03.48-4.21,1.19,1.64-.66,3.46-1.09,5.45-1.19h-1.24ZM537.58,728v1.86c.06,0,.11,0,.15.02,0-.66-.05-1.29-.15-1.88ZM785.06,871.95s-.02,0-.03.01t-.02.01h.05s.02-.02.02-.02h-.02Z"/>
    <path class="cls-6" d="M491.06,270.98c-.02,1.81-.48,3.34-1.23,4.62v.03c-.32.78-.69,1.52-1.12,2.23-.14.23-.28.47-.44.69-.13.2-.27.4-.41.59-.13.2-.27.38-.43.57-.19.25-.4.5-.62.75-.15.18-.31.36-.48.54-.09.09-.17.18-.25.26-.53.55-1.08,1.06-1.67,1.55-.39.33-.79.65-1.2.96-.41.31-.84.61-1.27.9-.05.03-.1.06-.14.09-.39.26-.78.5-1.19.74-.44.27-.88.52-1.33.77-2.8,1.52-5.83,2.73-8.78,3.74-.66.25-1.31.44-1.96.66-15.39,4.89-32.1,6.42-48.13,7.22-16.55.79-33.26.41-49.73-1.55-10.58-1.26-21.31-2.84-31.41-6.35-2.18-.75-4.34-1.6-6.47-2.57-.91-.41-1.83-.87-2.72-1.38-.34-.19-.68-.39-1.01-.6-.54-.33-1.08-.68-1.59-1.04-.26-.18-.51-.36-.76-.55-.26-.19-.51-.38-.75-.58-.26-.21-.51-.42-.76-.63-1.04-.9-2-1.88-2.84-2.92-.19-.22-.36-.44-.52-.67-.17-.23-.34-.46-.49-.69-.16-.23-.31-.47-.45-.7-.15-.24-.29-.49-.42-.73-.18-.33-.34-.66-.49-.99-.08-.17-.16-.34-.22-.51-.08-.17-.14-.34-.2-.51-.13-.35-.25-.7-.35-1.06-.05-.15-.09-.31-.12-.47-.06-.23-.11-.45-.15-.68-.08-.36-.13-.73-.17-1.1-.03-.22-.05-.45-.06-.68-.02-.28-.05-.56-.05-.85v44.62c-.05,36.35-.1,72.68-.12,109.01-.05,45.39-.1,90.81-.15,136.2-.03,28.87-.06,57.75-.09,86.63h172.74v-326.47c0-16.32.63-32.77,0-49.09ZM432.65,601.47c-.01.24-.01.49-.03.73-.56,12.38-9.48,24.18-22.05,26.45-6.4,1.15-12.37.42-18.28-2.29-4.82-2.21-8.96-6.25-11.67-10.78-2.77-4.64-4.34-10.56-3.82-15.97.62-6.35,2.81-11.76,6.88-16.69,6.97-8.42,19.84-11.85,30.08-8.02,10.94,4.1,18.37,13.88,18.86,25.58.02.24.02.49.03.73v.26Z"/>
    <path class="cls-4" d="M489.87,264.65s-.04-.09-.07-.14c-2.91-7.03-10.37-11-17.61-13.73-12.35-4.68-25.99-6.35-39.07-7.56-16.97-1.62-34.15-1.72-51.13-.46-13.63,1.02-27.68,2.61-40.74,6.76-8.52,2.68-19.4,7.09-22.01,16.66-.37,1.36-.54,2.64-.54,3.9,0,.29,0,.57.03.85.01.23.03.46.06.68.04.37.09.74.17,1.1.04.23.09.45.15.68.03.16.07.32.12.47.1.36.22.71.35,1.06.06.17.13.34.2.51.07.17.14.34.22.51.15.33.32.66.49.99.13.24.27.49.42.73.14.23.29.47.45.7.15.23.32.46.49.69.17.23.34.45.52.67.84,1.04,1.8,2.02,2.84,2.92.25.21.5.42.76.63.24.2.49.39.75.58.25.19.5.37.76.55.51.36,1.05.71,1.59,1.04.33.21.67.41,1.01.6.89.51,1.81.97,2.72,1.38,2.13.97,4.29,1.82,6.47,2.57,10.1,3.51,20.83,5.09,31.41,6.35,16.47,1.96,33.18,2.34,49.73,1.55,16.03-.8,32.74-2.33,48.13-7.22.65-.22,1.3-.41,1.96-.66,2.95-1.01,5.98-2.22,8.78-3.74.45-.25.89-.5,1.33-.77.41-.24.8-.48,1.19-.74.04-.03.09-.06.14-.09.43-.3.86-.59,1.27-.9.41-.31.81-.63,1.2-.96.59-.49,1.14-1,1.67-1.55.08-.08.16-.17.25-.26.17-.18.33-.36.48-.54.21-.25.42-.49.62-.75.16-.19.3-.37.43-.57.14-.19.28-.39.41-.59.15-.23.3-.46.44-.69.43-.71.8-1.45,1.12-2.23v-.03c.75-1.28,1.21-2.81,1.23-4.62v-.9c.12-2.16-.34-3.97-1.19-5.43ZM345.61,269.69c22.96-7.68,49-7.92,72.91-6.9,13.17.56,26.42,1.79,39.21,5.04,2.35.6,4.68,1.26,6.95,2.06.22.07.42.14.63.21-1.67.59-3.39,1.12-5.11,1.6-10.56,2.96-21.51,4.34-32.4,5.16-24.95,1.84-51.38,1.67-75.77-4.5-1.96-.51-3.95-1.07-5.88-1.7-.56-.17-1.09-.36-1.65-.58.36-.12.75-.27,1.11-.39Z"/>
    <path class="cls-3" d="M465.31,270.1c-1.67.59-3.39,1.12-5.11,1.6-10.56,2.96-21.51,4.34-32.4,5.16-24.95,1.84-51.38,1.67-75.77-4.5-1.96-.51-3.95-1.07-5.88-1.7-.56-.17-1.09-.36-1.65-.58.36-.12.75-.27,1.11-.39,22.96-7.68,49-7.92,72.91-6.9,13.17.56,26.42,1.79,39.21,5.04,2.35.6,4.68,1.26,6.95,2.06.22.07.42.14.63.21Z"/>
    <path class="cls-2" d="M788.25,868.15s-.02-.05-.04-.08c0,.04.02.1.05.15,0-.02-.01-.05-.01-.07ZM785.06,871.95s-.02,0-.03.01t-.02.01h.05s.02-.02.02-.02h-.02Z"/>
    <path class="cls-4" d="M789.69,871.88c.09.04.19.05.28.09-.13-.05-.22-.08-.28-.09Z"/>
    <path class="cls-1" d="M815.31,790.25c-.8-16.03-2.33-32.74-7.22-48.13-2.35-7.46-5.93-15.91-12.55-20.03-.77-.48-1.57-.89-2.44-1.23l-.03-.03c-1.67-.67-3.51-1.11-5.54-1.23-1.99.1-3.81.53-5.45,1.19-.05.02-.1.04-.15.07-.24.1-.48.21-.72.32-.14.06-.28.13-.41.2-.22.11-.44.23-.65.35-.19.1-.37.21-.56.33-.25.15-.49.31-.73.48-.15.1-.29.2-.43.3-.21.16-.42.32-.62.48-.57.45-1.11.94-1.62,1.46-.28.28-.56.57-.83.86-.04.05-.09.11-.14.16-.24.28-.49.57-.72.86-.2.25-.4.51-.59.77,0,.01-.02.02-.03.03-.18.25-.37.5-.54.76-.22.31-.44.63-.64.96-.03.04-.06.09-.08.13-.17.25-.33.51-.48.78-.04.05-.07.1-.09.15-.18.29-.35.59-.51.89-.1.17-.2.34-.28.51-.1.17-.18.35-.27.52-.29.53-.55,1.06-.8,1.6-.15.31-.29.61-.43.92s-.27.62-.4.92c-.21.48-.41.96-.6,1.44-.19.48-.38.95-.56,1.43-.22.55-.41,1.14-.63,1.69-4.19,11.9-5.74,24.9-6.93,37.38-1.6,16.98-1.72,34.15-.46,51.13,1.02,13.63,2.62,27.68,6.76,40.74.19.63.41,1.28.65,1.96.36,1.07.75,2.16,1.17,3.26.35.9.73,1.81,1.13,2.72.12.28.25.56.39.84.63,1.35,1.33,2.68,2.11,3.94.21.35.42.69.66,1.02,0,.01,0,.02.03.04.12.2.27.41.41.61.2.29.41.57.63.85s.44.56.67.83c.16.2.33.39.5.58.16.18.32.36.49.53.24.26.49.51.75.75.25.24.51.47.78.69.14.13.28.24.43.36,0,.01.02.02.03.02.25.2.5.39.76.57.33.24.67.46,1.02.67.29.19.59.36.9.51.26.14.53.27.8.4.2.09.4.18.61.26.16.06.32.12.48.18.42.16.85.3,1.29.42,1.35.37,2.64.54,3.9.54,2.98,0,5.69-.97,8.09-2.55.02,0,.05-.02.07-.05,4.02-2.66,7.14-7.04,9.15-11.5,5.38-11.92,7.39-25,8.92-37.88,1.96-16.47,2.35-33.18,1.55-49.73ZM789.78,858.63c-.51,1.96-1.07,3.95-1.7,5.88-.17.56-.36,1.09-.58,1.65-.12-.36-.26-.75-.38-1.11-7.68-22.96-7.93-49-6.91-72.91.56-13.17,1.79-26.42,5.06-39.21.59-2.35,1.24-4.68,2.04-6.95.07-.22.14-.42.22-.63.58,1.67,1.11,3.39,1.6,5.11,2.95,10.56,4.33,21.51,5.15,32.4,1.85,24.95,1.68,51.38-4.5,75.77Z"/>
    <path class="cls-4" d="M788.25,868.15s-.02-.05-.04-.08c0,.04.02.1.05.15,0-.02-.01-.05-.01-.07ZM785.06,871.95s-.02,0-.03.01t-.02.01h.05s.02-.02.02-.02h-.02Z"/>
    <path class="cls-4" d="M785.01,871.97s-.03.01-.05.03c.02,0,.05-.03.1-.03h-.05ZM789.69,871.88c.09.04.19.05.28.09-.13-.05-.22-.08-.28-.09Z"/>
    <path class="cls-3" d="M789.78,858.63c-.51,1.96-1.07,3.95-1.7,5.88-.17.56-.36,1.09-.58,1.65-.12-.36-.26-.75-.38-1.11-7.68-22.96-7.93-49-6.91-72.91.56-13.17,1.79-26.42,5.06-39.21.59-2.35,1.24-4.68,2.04-6.95.07-.22.14-.42.22-.63.58,1.67,1.11,3.39,1.6,5.11,2.95,10.56,4.33,21.51,5.15,32.4,1.85,24.95,1.68,51.38-4.5,75.77Z"/>
    <path class="cls-4" d="M785.08,871.95s0,.02-.02.02c-.05,0-.08.03-.1.03.02-.02.04-.03.05-.03t.02-.01s.02-.01.03-.01h.02Z"/>
    <path class="cls-4" d="M787.53,719.6c-1.99.1-3.81.53-5.45,1.19,1.18-.71,2.59-1.12,4.21-1.19h1.24Z"/>
    <path class="cls-4" d="M788.26,868.22c-.03-.05-.05-.11-.05-.15.02.03.04.05.04.08,0,.02.01.05.01.07Z"/>
    <path class="cls-4" d="M793.07,720.83c-1.67-.67-3.51-1.11-5.54-1.23h1.23c.2,0,.39.02.56.02,1.45.15,2.69.58,3.75,1.21Z"/>
    <path class="cls-4" d="M789.97,871.97c-.09-.04-.19-.05-.28-.09.06.01.15.04.28.09Z"/>
    <path class="cls-3" d="M412.08,601.33c0,.34-.02.68-.04,1.02-.1.5-.23.99-.38,1.48-.04.12-.08.24-.12.36-.32.57-.64,1.13-.99,1.67-.21.24-.41.48-.64.7-.19.19-.4.38-.59.56-.59.38-1.17.74-1.78,1.08-.02.01-.03.02-.05.03-.15.04-.27.07-.31.08-.46.14-.92.26-1.38.36t-.02,0c-.73.05-1.46.05-2.19,0t-.02,0c-.46-.1-.93-.22-1.38-.36-.12-.04-.24-.08-.36-.13-.57-.32-1.13-.64-1.67-.99-.24-.21-.48-.41-.7-.63-.2-.2-.39-.41-.58-.62-.38-.58-.72-1.16-1.06-1.76-.01-.02-.02-.03-.03-.05-.03-.14-.06-.26-.08-.3-.15-.49-.28-.99-.38-1.49-.04-.67-.04-1.35,0-2.02.1-.5.23-1,.38-1.49.04-.12.08-.25.13-.37.31-.56.62-1.1.97-1.64.21-.24.42-.5.65-.72.2-.2.41-.39.62-.58.58-.37,1.15-.72,1.75-1.06,0,0,0,0,0-.01.16-.05.3-.08.35-.1.46-.14.92-.26,1.39-.36h.02c.73-.05,1.45-.05,2.18,0h.02c.46.1.92.22,1.38.36.12.04.24.08.35.13.57.31,1.12.63,1.67.98.24.22.49.42.71.64.21.21.4.43.6.64.36.57.71,1.15,1.04,1.74,0,.02.02.03.03.05.04.14.07.26.08.3.14.46.26.92.37,1.39,0,.01,0,.02,0,.03.02.36.04.72.04,1.08Z"/>
    <path class="cls-4" d="M432.62,600.48c-.49-11.7-7.92-21.48-18.86-25.58-10.24-3.83-23.11-.4-30.08,8.02-4.07,4.93-6.26,10.34-6.88,16.69-.52,5.41,1.05,11.33,3.82,15.97,2.71,4.53,6.85,8.57,11.67,10.78,5.91,2.71,11.88,3.44,18.28,2.29,12.57-2.27,21.49-14.07,22.05-26.45.02-.24.02-.49.03-.73v-.26c-.01-.24-.01-.49-.03-.73ZM412.04,602.35c-.1.5-.23.99-.38,1.48-.04.12-.08.24-.12.36-.32.57-.64,1.13-.99,1.67-.21.24-.41.48-.64.7-.19.19-.4.38-.59.56-.59.38-1.17.74-1.78,1.08-.02.01-.03.02-.05.03-.15.04-.27.07-.31.08-.46.14-.92.26-1.38.36t-.02,0c-.73.05-1.46.05-2.19,0t-.02,0c-.46-.1-.93-.22-1.38-.36-.12-.04-.24-.08-.36-.13-.57-.32-1.13-.64-1.67-.99-.24-.21-.48-.41-.7-.63-.2-.2-.39-.41-.58-.62-.38-.58-.72-1.16-1.06-1.76-.01-.02-.02-.03-.03-.05-.03-.14-.06-.26-.08-.3-.15-.49-.28-.99-.38-1.49-.04-.67-.04-1.35,0-2.02.1-.5.23-1,.38-1.49.04-.12.08-.25.13-.37.31-.56.62-1.1.97-1.64.21-.24.42-.5.65-.72.2-.2.41-.39.62-.58.58-.37,1.15-.72,1.75-1.06,0,0,0,0,0-.01.16-.05.3-.08.35-.1.46-.14.92-.26,1.39-.36h.02c.73-.05,1.45-.05,2.18,0h.02c.46.1.92.22,1.38.36.12.04.24.08.35.13.57.31,1.12.63,1.67.98.24.22.49.42.71.64.21.21.4.43.6.64.36.57.71,1.15,1.04,1.74,0,.02.02.03.03.05.04.14.07.26.08.3.14.46.26.92.37,1.39,0,.01,0,.02,0,.03.02.36.04.72.04,1.08,0,.34-.02.68-.04,1.02Z"/>
    <path class="cls-3" d="M593.07,805.77c0,.34-.02.68-.04,1.02-.11.5-.23.99-.38,1.48-.04.12-.08.25-.13.37-.32.57-.65,1.14-1.01,1.69-.2.23-.4.46-.61.67-.2.2-.42.39-.63.59-.57.37-1.15.71-1.75,1.05l-.06.03s0,.01-.02.01c-.13.03-.22.06-.27.07-.46.14-.92.26-1.39.36t-.02,0c-.72.05-1.45.05-2.18,0,0,0,0,0-.02,0-.46-.1-.92-.22-1.38-.36-.14-.04-.28-.09-.42-.15-.55-.32-1.09-.63-1.63-.97-.23-.21-.47-.42-.69-.63-.2-.2-.39-.41-.58-.62-.37-.57-.72-1.15-1.06-1.75h0s0-.02-.01-.02c-.05-.16-.08-.29-.1-.34-.14-.46-.26-.92-.36-1.39v-.02c-.05-.72-.05-1.45,0-2.18,0,0,0-.01,0-.02.1-.47.22-.93.36-1.38.03-.11.07-.22.11-.32.32-.59.65-1.15,1.01-1.71.21-.24.41-.48.63-.71.21-.21.43-.39.64-.59.57-.37,1.14-.71,1.73-1.05h.01s0,0,0-.01c.16-.05.3-.08.35-.1.46-.14.92-.26,1.38-.36h.02c.73-.05,1.46-.05,2.18,0h.02c.47.1.93.22,1.39.36.12.04.24.08.36.13.57.32,1.12.64,1.67.99.24.21.48.41.7.63.19.19.38.4.57.6.37.58.73,1.17,1.07,1.78.01.02.02.03.03.05.03.14.06.26.08.31.15.48.27.97.38,1.47.02.34.04.68.04,1.02Z"/>
    <path class="cls-4" d="M613.61,804.94c-.49-11.71-7.92-21.49-18.87-25.59-10.24-3.84-23.11-.41-30.07,8.02-4.07,4.92-6.27,10.33-6.88,16.69-.52,5.4,1.04,11.32,3.81,15.96,2.71,4.53,6.86,8.57,11.68,10.78,5.91,2.72,11.88,3.44,18.28,2.29,12.56-2.27,21.48-14.07,22.05-26.45,0-.24.02-.49.03-.73v-.25c-.01-.24-.01-.48-.03-.72ZM593.03,806.79c-.11.5-.23.99-.38,1.48-.04.12-.08.25-.13.37-.32.57-.65,1.14-1.01,1.69-.2.23-.4.46-.61.67-.2.2-.42.39-.63.59-.57.37-1.15.71-1.75,1.05l-.06.03s0,.01-.02.01c-.13.03-.22.06-.27.07-.46.14-.92.26-1.39.36t-.02,0c-.72.05-1.45.05-2.18,0,0,0,0,0-.02,0-.46-.1-.92-.22-1.38-.36-.14-.04-.28-.09-.42-.15-.55-.32-1.09-.63-1.63-.97-.23-.21-.47-.42-.69-.63-.2-.2-.39-.41-.58-.62-.37-.57-.72-1.15-1.06-1.75h0s0-.02-.01-.02c-.05-.16-.08-.29-.1-.34-.14-.46-.26-.92-.36-1.39v-.02c-.05-.72-.05-1.45,0-2.18,0,0,0-.01,0-.02.1-.47.22-.93.36-1.38.03-.11.07-.22.11-.32.32-.59.65-1.15,1.01-1.71.21-.24.41-.48.63-.71.21-.21.43-.39.64-.59.57-.37,1.14-.71,1.73-1.05h.01s0,0,0-.01c.16-.05.3-.08.35-.1.46-.14.92-.26,1.38-.36h.02c.73-.05,1.46-.05,2.18,0h.02c.47.1.93.22,1.39.36.12.04.24.08.36.13.57.32,1.12.64,1.67.99.24.21.48.41.7.63.19.19.38.4.57.6.37.58.73,1.17,1.07,1.78.01.02.02.03.03.05.03.14.06.26.08.31.15.48.27.97.38,1.47.02.34.04.68.04,1.02s-.02.68-.04,1.02Z"/>
    <path class="cls-4" d="M537.73,729.88v162.08h-80.14c-7.32,0-14.63.02-21.95,0-27.42-.12-53.48-9.43-74.77-26.65-25.11-20.34-40.33-51.08-42.46-83.17-.38-5.79-.22-11.65-.22-17.47.03-26.2.05-52.43.1-78.64.01-13.16.02-26.33.03-39.49h172.74v29.63c.27,19.6,13.27,36.94,32.31,42,4.25,1.12,9.9,1.38,14.19,1.43h0s.02,8.4.02,8.4v1.86c.06,0,.11,0,.15.02Z"/>
    <path class="cls-4" d="M537.73,729.88s-.09-.01-.15-.02v-1.86c.1.59.15,1.22.15,1.88Z"/>
  </g>
  <g>
    <path class="cls-1" d="M675.45,525.07c-.69-1.56-2.5-2.26-4.07-1.57-1.56.69-2.26,2.51-1.58,4.07l7.95,17.97c.51,1.15,1.64,1.84,2.82,1.84.42,0,.84-.08,1.25-.26,1.56-.69,2.26-2.51,1.57-4.07l-7.95-17.97Z"/>
    <path class="cls-1" d="M793.38,523.07c-1.62-.55-3.37.32-3.91,1.93l-6.29,18.62c-.55,1.61.32,3.37,1.93,3.91.33.11.66.16.99.16,1.29,0,2.49-.81,2.92-2.1l6.29-18.62c.55-1.61-.32-3.37-1.93-3.91Z"/>
  </g>
  <path class="cls-3" d="M778.03,603.75v8.29c0,10.05-8.18,18.23-18.23,18.23h-13.63c-3,0-5.43-2.43-5.43-5.42v-8.28c0-10.06,8.18-18.24,18.24-18.24h13.63c2.99,0,5.42,2.43,5.42,5.42Z"/>
  <path class="cls-3" d="M725.29,616.57v8.28c0,2.99-2.43,5.42-5.42,5.42h-13.63c-10.06,0-18.24-8.18-18.24-18.23v-8.29c0-2.99,2.43-5.42,5.42-5.42h13.64c10.05,0,18.23,8.18,18.23,18.24Z"/>
  <path class="cls-5" d="M791.72,537.63h0c-1.42-1.62-3.57-2.5-5.74-2.3-1.15.11-2.32.53-3.38,1.3l-26.89,30.93c-2.33,1.72-5.17,2.63-8.08,2.63h-29.25c-2.89,0-5.73-.91-8.08-2.63l-26.89-30.93c-1.07-.79-2.24-1.21-3.42-1.3-2.16-.19-4.3.71-5.71,2.33-1.02,1.16-1.66,2.69-1.66,4.46v68.12c.14,5.17,1.25,23.87,15.8,38.31,6.11,6.07,12.64,9.45,17.38,11.34-1.37-2.17-2.93-5.26-3.83-9.17-.37-1.6-.57-3.1-.68-4.44,1.14,2.79,2.93,6.39,5.75,10.15,2.9,3.89,5.94,6.69,8.35,8.59-2.39-.06-22.62-.97-35.34-18.48-3.85-5.3-6.03-10.78-7.2-15.83h-49.47c-14.1,0-26.74,6.24-35.34,16.09-4.64-1.46-8.84-3.62-12.54-6.43-4.16-3.17-7.68-7.16-10.47-11.94-10.03-17.12-36.71-1.61-26.64,15.57,8.65,14.76,22.13,25.84,38.14,31.47-.03.71-.05,1.42-.05,2.13,0,12.95,5.25,24.67,13.74,33.16,3.57,3.57,7.7,6.57,12.27,8.84,6.29,3.14,13.39,4.9,20.89,4.9h98.49c7.5,0,14.59-1.76,20.88-4.9,15.41-7.68,26.01-23.6,26.01-42,0-3.4-.36-6.71-1.06-9.91-.44-2.02-1-3.99-1.68-5.9-7.6,2.92-13.96,3.2-15.23,3.23,2.4-1.9,5.45-4.7,8.35-8.59,2.81-3.76,4.6-7.36,5.74-10.15-.1,1.34-.31,2.84-.68,4.44-.9,3.91-2.46,7-3.82,9.17,4.73-1.89,11.26-5.27,17.37-11.34,12.58-12.48,15.12-28.14,15.66-35.5v-70.93c0-1.79-.65-3.32-1.69-4.49ZM706.24,630.27c-10.06,0-18.24-8.18-18.24-18.23v-8.29c0-2.99,2.43-5.42,5.42-5.42h13.64c10.05,0,18.23,8.18,18.23,18.24v8.28c0,2.99-2.43,5.42-5.42,5.42h-13.63ZM778.03,612.04c0,10.05-8.18,18.23-18.23,18.23h-13.63c-3,0-5.43-2.43-5.43-5.42v-8.28c0-10.06,8.18-18.24,18.24-18.24h13.63c2.99,0,5.42,2.43,5.42,5.42v8.29Z"/>
</svg>