<?xml version="1.0" encoding="UTF-8"?>
<svg id="Layer_1" xmlns="http://www.w3.org/2000/svg" version="1.1" viewBox="0 0 50 50">
  <!-- Generator: Adobe Illustrator 29.3.1, SVG Export Plug-In . SVG Version: 2.1.0 Build 151)  -->
  <defs>
    <style>
      .st0 {
        fill: #313b72;
      }

      .st1 {
        fill: #231f20;
      }

      .st2 {
        fill: #ecf5fa;
      }

      .st3 {
        fill: #070e2b;
      }

      .st4 {
        fill: #fff;
      }

      .st5 {
        fill: #1183bc;
      }
    </style>
  </defs>
  <g>
    <ellipse class="st4" cx="14.6" cy="5.9" rx="4.3" ry="1"/>
    <ellipse class="st4" cx="39.2" cy="40.3" rx="1" ry="4.3"/>
    <path class="st3" d="M23.1,35.5v9.7c-.8.2-2,.3-3.4.3-2.4,0-5.7-.1-7.9-2.3-1.9-1.9-2.1-4.4-2.3-7.1-.2-2.3,0-4.2.4-5.5,3.2-.1,6.3-.2,9.5-.3,0,.4-.3,1.6.4,2.9,1,1.9,3.2,2.2,3.4,2.2h0Z"/>
    <rect class="st0" x="9.8" y="6.8" width="9.6" height="23.9"/>
    <rect class="st0" x="22.5" y="35.8" width="15.5" height="9.6"/>
    <path class="st3" d="M9.7,31.4h9.8c.9,0,.9-1.3,0-1.3h-9.8c-.9,0-.9,1.3,0,1.3h0Z"/>
    <path class="st0" d="M39,44.6s0,0,0,0h0s0,0,0,0ZM20.1,30.1V9.1c0-1,0-2.1,0-3.2,0,.1,0,.2,0,.3h0c-.2.5-.7.8-1.2.9v21.6c0,.4,0,.9,0,1.3M23,36.1c1,0,2,0,3,0h11.9s0,0,0-.1c.2-.5.4-.9.9-1.1h0c.1,0,.2,0,.4,0h-15.8c-.1,0-.2,0-.4,0M10.4,30.1c0-1.2,0-2.5,0-3.7,0-2.9,0-5.8,0-8.7,0-2.5,0-5,0-7.6,0-1,0-1.9,0-2.9-.1,0-.3-.1-.4-.2-.5-.2-.9-.6-.9-1.1,0,1,0,1.9,0,2.9,0,2.3,0,4.7,0,7,0,2.9,0,5.8,0,8.7,0,1.9,0,3.7,0,5.6h1.3ZM23.1,45.9h16c0,0-.2,0-.3,0-.6-.2-.9-.8-1-1.3h-14.8M39.2,44.3s0,0,0,0c0,0,0,0,0,0,0,0,0,0,0,0ZM39.2,45.9h0c.2,0,.3,0,.4-.2-.2.1-.3.2-.5.2ZM39.3,34.8s0,0,0,0h0c.1,0,.2,0,.4,0h0c0,0,.1,0,.2,0-.1,0-.2-.2-.4-.2h0Z"/>
    <path class="st3" d="M20.1,5.6s0,0,0,0c-.2-.5-.7-.7-1.1-.9-.8-.3-1.7-.4-2.5-.5-1.1-.1-2.2-.1-3.3,0-.9,0-1.8.2-2.6.4-.5.2-1.2.5-1.4,1.1,0,0,0,.2,0,.3,0,.5.4.9.9,1.1.1,0,.3.1.4.2.6.2,1.3.3,2,.4,1.1.1,2.1.2,3.2,0,1,0,2.1-.1,3.1-.5,0,0,0,0,.1,0,.5-.2,1-.4,1.2-.9h0c0,0,0-.2,0-.3h0c0-.2,0-.3,0-.4h0ZM10.8,5.9c1.5-.5,3.1-.5,4.7-.4.8,0,1.7.1,2.5.3.2,0,.3,0,.4.1,0,0,0,0,0,0-.1,0-.2,0-.3.1-.7.2-1.4.3-2.1.3-1.6.1-3.3.1-4.9-.3-.1,0-.3,0-.4-.1,0,0,0,0-.1,0,0,0,0,0,0,0h0Z"/>
    <path class="st2" d="M39.2,44.3s0,0,0,0c0,0,0,0,0,0,0,0,0,0,0,0ZM39,44.6s0,0,0,0h0s0,0,0,0Z"/>
    <path class="st3" d="M39.3,44.6s0,0,0,0c0,0,0,0,0,0ZM39.3,44.6s0,0,0,0c0,0,0,0,0,0h0Z"/>
    <path class="st3" d="M39.2,44.3s0,0,0,0c0,0,0,0,0,0,0,0,0,0,0,0ZM39,44.6s0,0,0,0h0s0,0,0,0Z"/>
    <path class="st3" d="M41,39.3c0-1-.1-2.1-.5-3.1-.2-.5-.4-1-.8-1.3,0,0-.1,0-.2,0h0c-.1,0-.2,0-.4,0-.1,0-.2,0-.4,0h0c-.5.2-.7.7-.9,1.1,0,0,0,0,0,.1-.3.8-.4,1.6-.4,2.4-.1,1.1-.1,2.2,0,3.3,0,.9.2,1.8.4,2.6,0,0,0,0,0,.1.2.5.5,1.1,1,1.3,0,0,.2,0,.3,0,.2,0,.4,0,.5-.2,0,0,0,0,0,0,.3-.2.5-.5.6-.7.3-.8.5-1.6.6-2.4.1-1.1.2-2.1,0-3.2h0ZM39,44.6h0,0s0,0,0,0c0,0,0,0,0,0ZM39.2,44.3s0,0,0,0c0,0,0,0,0,0,0,0,0,0,0,0ZM39.3,43.7c0,.1,0,.3-.1.4,0,0,0,0,0,.1,0,0,0,0,0,0-.5-1.5-.5-3.1-.4-4.7,0-.8.1-1.7.3-2.5,0-.2,0-.3.1-.4,0,0,0,0,0,0,0,.1,0,.2.1.3.2.7.3,1.4.3,2.1.1,1.6.1,3.3-.3,4.9h0Z"/>
    <path class="st3" d="M39,44.6s0,0,0,0c0,0,0,0,0,0,0,0,0,0,0,0h0Z"/>
    <path class="st3" d="M39.2,34.8c-.1,0-.2,0-.4,0,0,0,.2,0,.3,0h0Z"/>
    <path class="st3" d="M39.2,44.4s0,0,0,0c0,0,0,0,0,0,0,0,0,0,0,0Z"/>
    <path class="st3" d="M39.4,36.1s0,0,0,0c0,0,0,0,0,0,0,0,0,0,0,.1,0,0,0,0,0,0,0,0,0,0,0,0,0,0,0,0,0,0,0,0,0,0,0,.1,0,0,0,0,0-.1,0,0,0-.2,0-.2,0,0,0,0,0,0,0,0,0,0,0,0,0,0,0,0,0,0,0,0,0,0,0,0,0,0,0,0,0,0,0,0,0,0,0,0,0,0,0,0,0,0,0,0,0,0,0,0,0,0,0,0,0,0,0,0,0,0,.1,0,0,0,0,0,.1,0h0s0,0,0,0c0,0,.2,0,0,0h0Z"/>
    <path class="st3" d="M39.5,34.9c-.1,0-.2,0-.4,0h0s0,0,0,0c0,0,.2,0,.2,0h0Z"/>
    <path class="st3" d="M39.3,44.6s0,0,0,0c0,0,0,0,0,0h0Z"/>
    <path class="st3" d="M39.3,44.6s0,0,0,0c0,0,0,0,0,0Z"/>
    <circle class="st4" cx="14.6" cy="27.2" r=".6"/>
    <path class="st3" d="M15.1,27.2c0,0,0,.1,0,.2,0,0,0-.1,0-.2,0,0,0,.1,0,.2,0,0,0,0,0,0,0,0,0-.2,0,0,0,0,0,.1,0,.2,0,0,0-.1,0,0,0,0,0,0,0,0,0,0,0,0,0,0,0,0,.1,0,0,0,0,0,0,0-.1,0-.1,0,0,0,0,0,0,0,0,0,0,0,0,0-.1,0-.2,0,0,0,.1,0,.2,0-.1,0-.2,0-.3,0,0,0,.1,0,.2,0,0,0-.1,0-.2,0,0,0,0,0,0,0,0,0,.2,0,0,0,0,0-.1,0-.2,0,0,0,.1,0,0,0,0,0,0,0,0,0,0,0,0,0,0,0,0,0,0,.1,0,0,0,0,0,0,0-.1,0-.1,0,0,0,0,0,0,0,0,0,0,0,0,0-.1,0-.2,0,0,0,.1,0,.2,0-.1,0-.2,0-.3,0,0,0,.1,0,.2,0,0,0-.1,0-.2,0,0,0,0,0,0,0,0,0,.2,0,0,0,0,0-.1,0-.2,0,0,0,.1,0,0,0,0,0,0,0,0,0,0,0,0,0,0,0,0-.1,0,0,0,0,0,0,0,.1,0,.1,0,0,0,0,0,0,0,0,0,0,0,0,0,.1,0,.2,0,0,0-.1,0-.2,0,.1,0,.2,0,.3,0,0,0-.1,0-.2,0,0,0,.1,0,.2,0,0,0,0,0,0,0,0,0-.2,0,0,0,0,0,.1,0,.2,0,0,0-.1,0,0,0,0,0,0,0,0,0,0,0,0,0,0,0,0,0,0-.1,0,0,0,0,0,0,0,.1,0,.1,0,0,0,0,0,0,0,0,0,0,0,0,0,.1,0,.2,0,0,0-.1,0-.2,0,0,0,.1,0,.2,0,.3.3.7.7.7.4,0,.7-.3.7-.7,0-.8-.5-1.4-1.2-1.7-.7-.2-1.5,0-1.9.5-.3.3-.4.7-.4,1.1,0,.3,0,.7.2,1,.2.3.4.6.8.7.4.2.8.2,1.2.1.8-.1,1.4-.9,1.4-1.8,0-.3-.3-.7-.7-.7-.4,0-.7.3-.7.7h0Z"/>
    <circle class="st4" cx="26.2" cy="40.3" r=".6"/>
    <path class="st3" d="M26.7,40.3c0,0,0,.1,0,.2,0,0,0-.1,0-.2,0,0,0,.1,0,.2,0,0,0,0,0,0,0,0,0-.2,0,0,0,0,0,.1,0,.2,0,0,0-.1,0,0,0,0,0,0,0,0,0,0,0,0,0,0,0,0,.1,0,0,0,0,0,0,0-.1,0-.1,0,0,0,0,0,0,0,0,0,0,0,0,0-.1,0-.2,0,0,0,.1,0,.2,0-.1,0-.2,0-.3,0,0,0,.1,0,.2,0,0,0-.1,0-.2,0,0,0,0,0,0,0,0,0,.2,0,0,0,0,0-.1,0-.2,0,0,0,.1,0,0,0,0,0,0,0,0,0,0,0,0,0,0,0,0,0,0,.1,0,0,0,0,0,0,0-.1,0-.1,0,0,0,0,0,0,0,0,0,0,0,0,0-.1,0-.2,0,0,0,.1,0,.2,0-.1,0-.2,0-.3,0,0,0,.1,0,.2,0,0,0-.1,0-.2,0,0,0,0,0,0,0,0,0,.2,0,0,0,0,0-.1,0-.2,0,0,0,.1,0,0,0,0,0,0,0,0,0,0,0,0,0,0,0,0-.1,0,0,0,0,0,0,0,.1,0,.1,0,0,0,0,0,0,0,0,0,0,0,0,0,.1,0,.2,0,0,0-.1,0-.2,0,.1,0,.2,0,.3,0,0,0-.1,0-.2,0,0,0,.1,0,.2,0,0,0,0,0,0,0,0,0-.2,0,0,0,0,0,.1,0,.2,0,0,0-.1,0,0,0,0,0,0,0,0,0,0,0,0,0,0,0,0,0,0-.1,0,0,0,0,0,0,0,.1,0,.1,0,0,0,0,0,0,0,0,0,0,0,0,0,.1,0,.2,0,0,0-.1,0-.2,0,0,0,.1,0,.2,0,.3.3.7.7.7.4,0,.7-.3.7-.7,0-.8-.5-1.4-1.2-1.7-.7-.2-1.5,0-1.9.5-.3.3-.4.7-.4,1.1,0,.3,0,.7.2,1,.2.3.4.6.8.7.4.2.8.2,1.2.1.8-.1,1.4-.9,1.4-1.8,0-.3-.3-.7-.7-.7-.4,0-.7.3-.7.7h0Z"/>
    <path class="st3" d="M18.8,30.1c0,.6,0,1.2,0,1.9h0c0,0,0,0,0,.1,0,2.3,2,4,4.3,4v-1.3c-.3,0-.6,0-.9,0-1.2-.3-2.1-1.4-2.1-2.7v-1.9h-1.3Z"/>
    <path class="st3" d="M21.8,35.5v9.7c0,.9,1.3.9,1.3,0v-9.7c0-.9-1.3-.9-1.3,0h0Z"/>
    <path class="st3" d="M9,30.1c0,.8,0,1.7,0,2.5,0,1.7,0,3.4,0,5.1,0,.4,0,.7,0,1.1.1,2.1,1.1,4,2.7,5.3,1.4,1.1,3,1.7,4.8,1.7.5,0,.9,0,1.4,0h5.1v-1.3h-6c-.7,0-1.4,0-2.1-.2-1.8-.5-3.3-1.8-4.1-3.5-.4-.9-.5-1.8-.5-2.8,0-1.4,0-2.8,0-4.1,0-1.3,0-2.6,0-3.9"/>
  </g>
  <g>
    <path class="st1" d="M32.1,23.3c0,0-.1,0-.2-.1l-.5-1.2c0-.1,0-.2.1-.3.1,0,.2,0,.3.1l.5,1.2c0,.1,0,.2-.1.3,0,0,0,0,0,0h0Z"/>
    <path class="st1" d="M39.2,23.3s0,0,0,0c-.1,0-.2-.1-.1-.3l.4-1.2c0-.1.1-.2.3-.1.1,0,.2.1.1.3l-.4,1.2c0,0-.1.1-.2.1h0Z"/>
    <path class="st5" d="M38.9,23.1l-1.7,2c-.1.1-.3.2-.5.2h-1.9c-.2,0-.4,0-.5-.2l-1.7-2c-.3-.2-.7,0-.7.4v4.8c0,1.7,1.1,2.9,2.8,2.9h1.8c1.7,0,3.2-1.3,3.2-2.9v-4.8c0-.4-.4-.6-.7-.4h0Z"/>
    <path class="st5" d="M28.6,29.1h6.3c1.7,0,3,1.3,3,3h0c0,1.7-1.3,3-3,3h-6.3c-1.7,0-3-1.3-3-3h0c0-1.7,1.3-3,3-3Z"/>
    <path class="st5" d="M23.2,30c.6,1,1.6,1.8,2.8,2.1,1.2.3,1.8-1.6.5-1.9h0c-.7-.2-1.2-.6-1.6-1.2l-1.7,1Z"/>
    <path class="st3" d="M24.9,29c-.6-1.1-2.4-.1-1.7,1,.2,0,.7-.1,1.1-.4.3-.2.5-.4.6-.6Z"/>
    <path class="st4" d="M35,28.2v.5c0,0,0,.2-.2.2h-.9c-.5,0-1-.4-1-1v-.5c0,0,0-.2.2-.2h.9c.5,0,1,.4,1,1Z"/>
    <path class="st4" d="M38.4,27.4v.5c0,.5-.4,1-1,1h-.9c0,0-.2,0-.2-.2v-.5c0-.5.4-1,1-1h.9c0,0,.2,0,.2.2Z"/>
    <path class="st3" d="M34.5,31.3c-.2,0-1.5,0-2.3-1.2-.7-1-.5-2.2-.5-2.3,0,.3,0,1.5,1,2.5.4.4.8.6,1.1.7,0-.1-.2-.3-.2-.6,0-.1,0-.2,0-.3,0,.2.2.4.4.7.2.2.4.4.5.6h0Z"/>
    <path class="st3" d="M36.8,31.3c.2,0,1.5,0,2.3-1.2.7-1,.5-2.2.5-2.3,0,.3,0,1.5-1,2.5-.4.4-.8.6-1.1.7,0-.1.2-.3.2-.6,0-.1,0-.2,0-.3,0,.2-.2.4-.4.7-.2.2-.4.4-.5.6h0Z"/>
  </g>
</svg>