<?xml version="1.0" encoding="UTF-8"?>
<svg id="Layer_1" data-name="Layer 1" xmlns="http://www.w3.org/2000/svg" viewBox="0 0 60 60">
  <defs>
    <style>
      .cls-1 {
        fill: #313b72;
      }

      .cls-2 {
        fill: #231f20;
      }

      .cls-3 {
        fill: #ecf5fa;
      }

      .cls-4 {
        fill: #070e2b;
      }

      .cls-5 {
        fill: #fff;
      }

      .cls-6 {
        fill: #1183bc;
      }
    </style>
  </defs>
  <g>
    <ellipse class="cls-5" cx="404.89" cy="270.08" rx="66.26" ry="14.9"/>
    <ellipse class="cls-5" cx="787.51" cy="805.77" rx="14.9" ry="66.26"/>
    <path class="cls-4" d="M537.73,729.88v151.78c-12.96,2.34-31.3,4.7-53.26,4.28-37.28-.7-88.54-1.66-122.59-35.39-29.2-28.92-32.56-68.88-36.02-109.95-3.02-35.86,1.34-65.59,5.55-85.13,49.09-1.67,98.18-3.34,147.26-5.01-1.22,5.97-4.36,25.19,6.23,44.84,16.07,29.84,49.52,34.2,52.82,34.57Z"/>
    <rect class="cls-1" x="218.69" y="395.37" width="371.97" height="149.2" transform="translate(874.65 65.3) rotate(90)"/>
    <rect class="cls-1" x="527.44" y="734.39" width="241.32" height="149.2"/>
    <path class="cls-4" d="M328.6,667.11h152.18c13.24,0,13.26-20.57,0-20.57h-152.18c-13.24,0-13.26,20.57,0,20.57h0Z"/>
    <path class="cls-1" d="M785.06,871.95s-.02,0-.05.02h.05s.02-.02.02-.02h-.02ZM491.06,646.54v-326.47c0-16.32.63-32.77,0-49.1-.02,1.82-.48,3.34-1.24,4.63v.02c-3.1,7.61-11.51,11.7-19.33,14.39v336.16c0,6.77-.11,13.57-.19,20.36M536.21,740.16c15.6.02,31.22,0,46.82,0h184.54c.22-.56.41-1.14.63-1.7,2.74-7.24,6.71-14.7,13.73-17.61l.15-.07c1.65-.65,3.46-1.09,5.45-1.19h-245.63c-1.92,0-3.83.02-5.74,0M338.89,646.54c.02-19.14.04-38.28.06-57.42.05-45.39.1-90.78.15-136.17.02-39.19.07-78.38.12-117.57.02-15.14.02-30.25.05-45.39-2.18-.75-4.34-1.6-6.47-2.57-7.12-3.22-14.1-9.3-14.1-17.34,0,14.87-.02,29.74-.02,44.62-.05,36.36-.1,72.69-.12,109.02-.05,45.39-.1,90.8-.15,136.2-.03,28.87-.07,57.75-.09,86.63h20.57ZM537.73,891.95h249.8c-1.26,0-2.54-.17-3.9-.53-8.86-2.42-13.3-11.89-16.03-20.06h-229.87M788.25,868.14s-.02-.05-.05-.07c0,.05.05.12.07.19,0-.02-.02-.07-.02-.12ZM787.53,891.95h1.4c2.52,0,4.87-.97,6.69-2.54-2.4,1.57-5.11,2.54-8.09,2.54ZM789.32,719.62c-.17,0-.36-.02-.56-.02h-1.24c2.03.12,3.88.56,5.55,1.24l.02.02c.87.34,1.67.75,2.45,1.24-1.72-1.48-3.88-2.4-6.22-2.47Z"/>
    <path class="cls-4" d="M489.87,264.65s-.05-.1-.07-.15c-2.91-7.02-10.37-11-17.61-13.73-12.35-4.67-25.99-6.35-39.07-7.56-16.98-1.62-34.15-1.72-51.13-.46-13.64,1.02-27.68,2.62-40.74,6.76-8.53,2.69-19.4,7.1-22.02,16.66-.36,1.36-.53,2.64-.53,3.9,0,8.04,6.98,14.12,14.1,17.34,2.13.97,4.29,1.82,6.47,2.57,10.1,3.51,20.83,5.09,31.41,6.35,16.47,1.96,33.18,2.35,49.73,1.55,16.03-.8,32.75-2.33,48.13-7.22.65-.22,1.31-.41,1.96-.65,7.82-2.69,16.23-6.78,19.33-14.39v-.02c.75-1.28,1.21-2.81,1.24-4.63v-.9c.12-2.16-.34-3.97-1.19-5.43ZM345.61,269.69c22.96-7.68,49-7.92,72.91-6.9,13.18.56,26.43,1.79,39.21,5.04,2.35.61,4.67,1.26,6.95,2.06.22.07.41.15.63.22-1.67.58-3.39,1.11-5.11,1.6-10.56,2.95-21.51,4.34-32.41,5.16-24.95,1.84-51.37,1.67-75.76-4.51-1.96-.51-3.95-1.07-5.89-1.7-.56-.17-1.09-.36-1.65-.58.36-.12.75-.27,1.11-.39Z"/>
    <path class="cls-3" d="M788.25,868.14s-.02-.05-.05-.07c0,.05.05.12.07.19,0-.02-.02-.07-.02-.12ZM785.06,871.95s-.02,0-.05.02h.05s.02-.02.02-.02h-.02Z"/>
    <path class="cls-4" d="M789.69,871.88c.09.04.19.05.28.09-.13-.06-.22-.09-.28-.09ZM789.68,871.87s-.05,0-.05.02c-.02-.03.02-.03.06-.02,0,0,0,0,0,0Z"/>
    <path class="cls-4" d="M788.25,868.14s-.02-.05-.05-.07c0,.05.05.12.07.19,0-.02-.02-.07-.02-.12ZM785.06,871.95s-.02,0-.05.02h.05s.02-.02.02-.02h-.02Z"/>
    <path class="cls-4" d="M815.31,790.25c-.8-16.03-2.33-32.75-7.22-48.13-2.35-7.46-5.93-15.91-12.55-20.03-.77-.48-1.57-.9-2.45-1.24l-.02-.02c-1.67-.68-3.51-1.11-5.55-1.24-1.99.1-3.8.53-5.45,1.19l-.15.07c-7.02,2.91-11,10.37-13.73,17.61-.22.56-.41,1.14-.63,1.7-4.19,11.89-5.74,24.9-6.93,37.37-1.6,16.98-1.72,34.15-.46,51.13,1.02,13.64,2.62,27.68,6.76,40.74.19.63.41,1.28.65,1.96,2.74,8.16,7.17,17.63,16.03,20.06,1.36.36,2.64.53,3.9.53,2.98,0,5.69-.97,8.09-2.54.02,0,.05-.02.07-.05,4.02-2.66,7.15-7.05,9.16-11.51,5.38-11.92,7.39-25,8.91-37.88,1.96-16.47,2.35-33.18,1.55-49.73ZM785.06,871.97h-.05s.05-.02.05-.02h.02s0,.02-.02.02ZM788.21,868.07s.05.05.05.07c0,.05.02.1.02.12-.02-.07-.07-.15-.07-.19ZM789.78,858.62c-.51,1.96-1.07,3.95-1.7,5.89-.17.56-.36,1.09-.58,1.65-.12-.36-.27-.75-.39-1.11-7.68-22.96-7.92-49-6.9-72.91.56-13.18,1.79-26.43,5.06-39.21.58-2.35,1.24-4.67,2.03-6.95.07-.22.15-.41.22-.63.58,1.67,1.11,3.39,1.6,5.11,2.95,10.56,4.34,21.51,5.16,32.41,1.84,24.95,1.67,51.37-4.51,75.76Z"/>
    <path class="cls-4" d="M785.08,871.95s0,.02-.02.02c-.05,0-.07.02-.1.02.05-.05.07-.05.1-.05h.02Z"/>
    <path class="cls-4" d="M787.53,719.6c-1.99.1-3.8.53-5.45,1.19,1.19-.7,2.59-1.11,4.21-1.19h1.24Z"/>
    <path class="cls-4" d="M788.28,868.26c-.02-.07-.07-.15-.07-.19.02.02.05.05.05.07,0,.05.02.1.02.12Z"/>
    <path class="cls-4" d="M790.46,739.41c-.07.07-.12.15-.19.24-.02.05-.05.1-.1.17-.41.73-.82,1.43-1.24,2.16-.19.39-.39.77-.58,1.16-.02.07-.05.15-.1.22,0,.02-.02.07-.02.1-.27.61-.48,1.26-.7,1.89-.24-.65-.48-1.31-.75-1.96-.07,0-1.28-2.47-1.48-2.88-.07-.15-.19-.39-.29-.65-.02-.05-.05-.07-.07-.12-.02,0-.02-.02-.02-.02-.22-.24-.48-.48-.56-.53-.27-.19-.41-.29-.46-.31.15.07.65.36.97.58-.15-.46-.19-.65.1.07.07.05.12.07.15.12.15.1.24.17.34.22.65.17,1.36.27,2.08.31.8-.15,1.36-.24,1.65-.29h.02c.51-.24.87-.39,1.07-.46.34-.53,2.86-1.31.19,0Z"/>
    <path class="cls-4" d="M793.07,720.83c-1.67-.68-3.51-1.11-5.55-1.24h1.24c.19,0,.39.02.56.02,1.45.15,2.69.58,3.75,1.21Z"/>
    <path class="cls-4" d="M789.69,871.88s-.08,0-.06.02c0-.02.02-.02.05-.02,0,0,0,0,0,0Z"/>
    <path class="cls-4" d="M789.97,871.97c-.09-.05-.19-.05-.28-.09.06,0,.15.04.28.09Z"/>
    <circle class="cls-5" cx="404.68" cy="601.25" r="9.79"/>
    <path class="cls-4" d="M412.08,601.33c-.01.82-.07,1.63-.17,2.44.12-.91.24-1.82.37-2.73-.14.94-.34,1.88-.62,2.79-.12.37-.27.74-.39,1.11-.36,1.14,1.17-2.38.38-.96-.45.82-.91,1.6-1.42,2.38-.88,1.34,1.47-1.61.62-.81-.33.31-.61.69-.94,1.01-.27.27-.57.52-.84.79-1.26,1.25,2.13-1.43.64-.47-.72.46-1.43.9-2.18,1.32-1.62.91.9-.24.97-.36-.09.16-1.16.42-1.33.47-.91.28-1.84.48-2.79.62.91-.12,1.82-.24,2.73-.37-1.63.2-3.25.2-4.88,0,.91.12,1.82.24,2.73.37-.94-.14-1.88-.34-2.79-.62-.37-.12-.74-.27-1.11-.39-1.14-.36,2.38,1.17.96.38-.82-.45-1.6-.91-2.38-1.42-1.34-.88,1.61,1.47.81.62-.31-.33-.69-.61-1.01-.94-.27-.27-.52-.57-.79-.84-1.25-1.26,1.43,2.13.47.64-.46-.72-.9-1.43-1.32-2.18-.91-1.62.24.9.36.97-.16-.09-.42-1.16-.47-1.33-.28-.91-.48-1.84-.62-2.79.12.91.24,1.82.37,2.73-.2-1.63-.2-3.25,0-4.88-.12.91-.24,1.82-.37,2.73.14-.94.34-1.88.62-2.79.12-.37.27-.74.39-1.11.36-1.14-1.17,2.38-.38.96.45-.82.91-1.6,1.42-2.38.88-1.34-1.47,1.61-.62.81.33-.31.61-.69.94-1.01.27-.27.57-.52.84-.79,1.26-1.25-2.13,1.43-.64.47.72-.46,1.43-.9,2.18-1.32,1.62-.91-.9.24-.97.36.09-.16,1.16-.42,1.33-.47.91-.28,1.84-.48,2.79-.62-.91.12-1.82.24-2.73.37,1.63-.2,3.25-.2,4.88,0-.91-.12-1.82-.24-2.73-.37.94.14,1.88.34,2.79.62.37.12.74.27,1.11.39,1.14.36-2.38-1.17-.96-.38.82.45,1.6.91,2.38,1.42,1.34.88-1.61-1.47-.81-.62.31.33.69.61,1.01.94.27.27.52.57.79.84,1.25,1.26-1.43-2.13-.47-.64.46.72.9,1.43,1.32,2.18.91,1.62-.24-.9-.36-.97.16.09.42,1.16.47,1.33.28.91.48,1.84.62,2.79-.12-.91-.24-1.82-.37-2.73.1.81.16,1.62.17,2.44.07,5.38,4.68,10.54,10.28,10.28,5.51-.25,10.36-4.52,10.28-10.28-.17-12.08-7.69-22.23-18.89-26.43-10.24-3.84-23.11-.41-30.08,8.02-4.07,4.92-6.26,10.34-6.88,16.69-.52,5.41,1.04,11.32,3.81,15.96,2.71,4.53,6.85,8.57,11.68,10.78,5.91,2.71,11.88,3.44,18.28,2.29,12.86-2.31,21.91-14.63,22.08-27.32.07-5.38-4.78-10.53-10.28-10.28-5.64.25-10.21,4.52-10.28,10.28Z"/>
    <circle class="cls-5" cx="585.66" cy="805.77" r="9.79"/>
    <path class="cls-4" d="M593.07,805.77c-.01.82-.07,1.63-.17,2.44.12-.91.24-1.82.37-2.73-.14.94-.34,1.88-.62,2.79-.12.37-.27.74-.39,1.11-.36,1.14,1.17-2.38.38-.96-.45.82-.91,1.6-1.42,2.38-.88,1.34,1.47-1.61.62-.81-.33.31-.61.69-.94,1.01-.27.27-.57.52-.84.79-1.26,1.25,2.13-1.43.64-.47-.72.46-1.43.9-2.18,1.32-1.62.91.9-.24.97-.36-.09.16-1.16.42-1.33.47-.91.28-1.84.48-2.79.62.91-.12,1.82-.24,2.73-.37-1.63.2-3.25.2-4.88,0,.91.12,1.82.24,2.73.37-.94-.14-1.88-.34-2.79-.62-.37-.12-.74-.27-1.11-.39-1.14-.36,2.38,1.17.96.38-.82-.45-1.6-.91-2.38-1.42-1.34-.88,1.61,1.47.81.62-.31-.33-.69-.61-1.01-.94-.27-.27-.52-.57-.79-.84-1.25-1.26,1.43,2.13.47.64-.46-.72-.9-1.43-1.32-2.18-.91-1.62.24.9.36.97-.16-.09-.42-1.16-.47-1.33-.28-.91-.48-1.84-.62-2.79.12.91.24,1.82.37,2.73-.2-1.63-.2-3.25,0-4.88-.12.91-.24,1.82-.37,2.73.14-.94.34-1.88.62-2.79.12-.37.27-.74.39-1.11.36-1.14-1.17,2.38-.38.96.45-.82.91-1.6,1.42-2.38.88-1.34-1.47,1.61-.62.81.33-.31.61-.69.94-1.01.27-.27.57-.52.84-.79,1.26-1.25-2.13,1.43-.64.47.72-.46,1.43-.9,2.18-1.32,1.62-.91-.9.24-.97.36.09-.16,1.16-.42,1.33-.47.91-.28,1.84-.48,2.79-.62-.91.12-1.82.24-2.73.37,1.63-.2,3.25-.2,4.88,0-.91-.12-1.82-.24-2.73-.37.94.14,1.88.34,2.79.62.37.12.74.27,1.11.39,1.14.36-2.38-1.17-.96-.38.82.45,1.6.91,2.38,1.42,1.34.88-1.61-1.47-.81-.62.31.33.69.61,1.01.94.27.27.52.57.79.84,1.25,1.26-1.43-2.13-.47-.64.46.72.9,1.43,1.32,2.18.91,1.62-.24-.9-.36-.97.16.09.42,1.16.47,1.33.28.91.48,1.84.62,2.79-.12-.91-.24-1.82-.37-2.73.1.81.16,1.62.17,2.44.07,5.38,4.68,10.54,10.28,10.28,5.51-.25,10.36-4.52,10.28-10.28-.17-12.08-7.69-22.23-18.89-26.43-10.24-3.84-23.11-.41-30.08,8.02-4.07,4.92-6.26,10.34-6.88,16.69-.52,5.41,1.04,11.32,3.81,15.96,2.71,4.53,6.85,8.57,11.68,10.78,5.91,2.71,11.88,3.44,18.28,2.29,12.86-2.31,21.91-14.63,22.08-27.32.07-5.38-4.78-10.53-10.28-10.28-5.64.25-10.21,4.52-10.28,10.28Z"/>
    <path class="cls-4" d="M470.31,646.54c-.12,9.66-.18,19.32.19,28.93v.7c0,.41.02.82.05,1.21,1.07,35.65,31.68,62.73,67.06,62.78l-.05-20.57c-4.29-.05-9.95-.3-14.19-1.43-19.04-5.06-32.04-22.4-32.31-42v-29.63h-20.75Z"/>
    <path class="cls-4" d="M517.16,729.88v151.78c0,13.24,20.57,13.26,20.57,0v-151.78c0-13.24-20.57-13.26-20.57,0h0Z"/>
    <path class="cls-4" d="M318.32,646.54c-.01,13.16-.02,26.33-.03,39.49-.05,26.21-.07,52.44-.1,78.65,0,5.81-.17,11.67.22,17.46,2.13,32.09,17.34,62.83,42.46,83.18,21.29,17.22,47.35,26.52,74.77,26.64,7.31.02,14.63,0,21.94,0h80.14v-20.59s-93.73,0-93.73,0c-11.07,0-21.92-.17-32.77-2.95-28.46-7.34-51.91-27.39-64.16-54.01-6.22-13.54-8.33-28.17-8.31-42.94.02-21.44.05-42.9.07-64.33.02-20.2.04-40.39.06-60.59"/>
  </g>
  <g>
    <path class="cls-2" d="M677.45,540.13c-1.19,0-2.31-.68-2.82-1.84l-7.95-17.97c-.69-1.56.02-3.38,1.57-4.07,1.56-.69,3.38.02,4.07,1.57l7.95,17.97c.69,1.56-.02,3.38-1.57,4.07-.41.18-.83.26-1.25.26Z"/>
    <path class="cls-2" d="M788.56,540.45c-.33,0-.66-.05-.99-.16-1.61-.54-2.48-2.3-1.93-3.91l6.29-18.62c.54-1.61,2.29-2.48,3.91-1.93,1.61.54,2.48,2.3,1.93,3.91l-6.29,18.62c-.43,1.29-1.64,2.1-2.92,2.1Z"/>
    <path class="cls-6" d="M782.61,536.63l-26.89,30.93c-2.33,1.71-5.16,2.62-8.08,2.62h-29.25c-2.89,0-5.73-.91-8.08-2.62l-26.89-30.93c-4.47-3.29-10.78-.08-10.78,5.49v75.16c0,25.7,17.71,45.74,43.41,45.74h27.71c25.7,0,49.67-20.04,49.67-45.74v-75.16c0-5.57-6.32-8.78-10.81-5.49Z"/>
    <rect class="cls-6" x="576.49" y="630.71" width="192.28" height="93.78" rx="46.89" ry="46.89"/>
    <path class="cls-6" d="M538.39,644c9.54,16.28,24.96,28.12,43.18,33.06,19.19,5.2,27.37-24.55,8.2-29.75h0c-10.65-2.89-19.14-9.33-24.74-18.88l-26.64,15.57Z"/>
    <path class="cls-4" d="M565.04,628.43c-10.03-17.12-36.71-1.61-26.64,15.57,3.82-.62,10.13-2.17,16.68-6.48,4.66-3.06,7.88-6.49,9.96-9.09Z"/>
    <path class="cls-5" d="M708.92,598.65h8.28c1.34,0,2.42,1.09,2.42,2.42v13.63c0,8.41-6.83,15.23-15.23,15.23h-8.28c-1.34,0-2.42-1.09-2.42-2.42v-13.63c0-8.41,6.83-15.23,15.23-15.23Z" transform="translate(1320.95 -92.35) rotate(90)"/>
    <path class="cls-5" d="M748.85,598.65h8.28c8.41,0,15.23,6.83,15.23,15.23v13.63c0,1.34-1.09,2.42-2.42,2.42h-8.28c-8.41,0-15.23-6.83-15.23-15.23v-13.63c0-1.34,1.09-2.42,2.42-2.42Z" transform="translate(1373.69 -145.09) rotate(90)"/>
    <path class="cls-4" d="M715.39,665.02c-2.38-.07-22.61-.97-35.33-18.48-11.63-16.02-8.03-33.6-7.43-36.3.13,5.17,1.25,23.87,15.8,38.31,6.11,6.06,12.64,9.44,17.37,11.34-1.36-2.18-2.92-5.26-3.83-9.17-.37-1.6-.57-3.1-.68-4.44,1.14,2.79,2.93,6.39,5.74,10.16,2.9,3.89,5.94,6.68,8.35,8.59Z"/>
    <path class="cls-4" d="M750.79,665.02c2.38-.07,22.61-.97,35.33-18.48,11.63-16.02,8.03-33.6,7.43-36.3-.13,5.17-1.25,23.87-15.8,38.31-6.11,6.06-12.64,9.44-17.37,11.34,1.36-2.18,2.92-5.26,3.83-9.17.37-1.6.57-3.1.68-4.44-1.14,2.79-2.93,6.39-5.74,10.16-2.9,3.89-5.94,6.68-8.35,8.59Z"/>
  </g>
</svg>
